<?xml version="1.0" encoding="UTF-8" standalone="no"?>
<!DOCTYPE svg PUBLIC "-//W3C//DTD SVG 1.1//EN"
 "http://www.w3.org/Graphics/SVG/1.1/DTD/svg11.dtd">
<!-- Generated by graphviz version 2.38.0 (20140413.2041)
 -->
<!-- Title: eigen&#45;levenberg&#45;marquardt.cc Pages: 1 -->
<svg width="1075pt" height="173pt"
 viewBox="0.00 0.00 1075.00 173.00" xmlns="http://www.w3.org/2000/svg" xmlns:xlink="http://www.w3.org/1999/xlink">
<g id="graph0" class="graph" transform="scale(1 1) rotate(0) translate(4 169)">
<title>eigen&#45;levenberg&#45;marquardt.cc</title>
<polygon fill="white" stroke="none" points="-4,4 -4,-169 1071,-169 1071,4 -4,4"/>
<!-- Node1 -->
<g id="node1" class="node"><title>Node1</title>
<polygon fill="#bfbfbf" stroke="black" points="333,-145.5 333,-164.5 489,-164.5 489,-145.5 333,-145.5"/>
<text text-anchor="middle" x="411" y="-152.5" font-family="Helvetica,sans-Serif" font-size="10.00">eigen&#45;levenberg&#45;marquardt.cc</text>
</g>
<!-- Node2 -->
<g id="node2" class="node"><title>Node2</title>
<polygon fill="white" stroke="#bfbfbf" points="0,-78.5 0,-97.5 48,-97.5 48,-78.5 0,-78.5"/>
<text text-anchor="middle" x="24" y="-85.5" font-family="Helvetica,sans-Serif" font-size="10.00">cstring</text>
</g>
<!-- Node1&#45;&gt;Node2 -->
<g id="edge1" class="edge"><title>Node1&#45;&gt;Node2</title>
<path fill="none" stroke="midnightblue" d="M332.924,-153.337C259.745,-150.58 148.253,-140.834 57,-109 52.7304,-107.511 48.418,-105.416 44.3824,-103.139"/>
<polygon fill="midnightblue" stroke="midnightblue" points="45.9594,-99.9985 35.6182,-97.6943 42.2654,-105.944 45.9594,-99.9985"/>
</g>
<!-- Node3 -->
<g id="node3" class="node"><title>Node3</title>
<polygon fill="white" stroke="#bfbfbf" points="66.5,-78.5 66.5,-97.5 103.5,-97.5 103.5,-78.5 66.5,-78.5"/>
<text text-anchor="middle" x="85" y="-85.5" font-family="Helvetica,sans-Serif" font-size="10.00">map</text>
</g>
<!-- Node1&#45;&gt;Node3 -->
<g id="edge2" class="edge"><title>Node1&#45;&gt;Node3</title>
<path fill="none" stroke="midnightblue" d="M332.988,-152.545C270.98,-148.996 183.149,-138.535 112,-109 108.767,-107.658 105.567,-105.847 102.561,-103.859"/>
<polygon fill="midnightblue" stroke="midnightblue" points="104.392,-100.858 94.29,-97.664 100.195,-106.46 104.392,-100.858"/>
</g>
<!-- Node4 -->
<g id="node4" class="node"><title>Node4</title>
<polygon fill="white" stroke="#bfbfbf" points="121.5,-78.5 121.5,-97.5 248.5,-97.5 248.5,-78.5 121.5,-78.5"/>
<text text-anchor="middle" x="185" y="-85.5" font-family="Helvetica,sans-Serif" font-size="10.00">boost/assign/list_of.hpp</text>
</g>
<!-- Node1&#45;&gt;Node4 -->
<g id="edge3" class="edge"><title>Node1&#45;&gt;Node4</title>
<path fill="none" stroke="midnightblue" d="M380.989,-145.369C340.691,-133.778 269.011,-113.162 224.406,-100.334"/>
<polygon fill="midnightblue" stroke="midnightblue" points="225.353,-96.9642 214.775,-97.5637 223.418,-103.691 225.353,-96.9642"/>
</g>
<!-- Node5 -->
<g id="node5" class="node"><title>Node5</title>
<polygon fill="white" stroke="#bfbfbf" points="266.5,-78.5 266.5,-97.5 401.5,-97.5 401.5,-78.5 266.5,-78.5"/>
<text text-anchor="middle" x="334" y="-85.5" font-family="Helvetica,sans-Serif" font-size="10.00">roboptim/core/function.hh</text>
</g>
<!-- Node1&#45;&gt;Node5 -->
<g id="edge4" class="edge"><title>Node1&#45;&gt;Node5</title>
<path fill="none" stroke="midnightblue" d="M400.615,-145.234C388.146,-134.708 367.026,-116.879 351.908,-104.117"/>
<polygon fill="midnightblue" stroke="midnightblue" points="354.119,-101.403 344.22,-97.6273 349.604,-106.752 354.119,-101.403"/>
</g>
<!-- Node6 -->
<g id="node6" class="node"><title>Node6</title>
<polygon fill="white" stroke="#bfbfbf" points="420,-78.5 420,-97.5 556,-97.5 556,-78.5 420,-78.5"/>
<text text-anchor="middle" x="488" y="-85.5" font-family="Helvetica,sans-Serif" font-size="10.00">roboptim/core/problem.hh</text>
</g>
<!-- Node1&#45;&gt;Node6 -->
<g id="edge5" class="edge"><title>Node1&#45;&gt;Node6</title>
<path fill="none" stroke="midnightblue" d="M421.385,-145.234C433.854,-134.708 454.974,-116.879 470.092,-104.117"/>
<polygon fill="midnightblue" stroke="midnightblue" points="472.396,-106.752 477.78,-97.6273 467.881,-101.403 472.396,-106.752"/>
</g>
<!-- Node7 -->
<g id="node7" class="node"><title>Node7</title>
<polygon fill="white" stroke="#bfbfbf" points="574.5,-73 574.5,-103 687.5,-103 687.5,-73 574.5,-73"/>
<text text-anchor="start" x="582.5" y="-91" font-family="Helvetica,sans-Serif" font-size="10.00">roboptim/core/solver</text>
<text text-anchor="middle" x="631" y="-80" font-family="Helvetica,sans-Serif" font-size="10.00">&#45;error.hh</text>
</g>
<!-- Node1&#45;&gt;Node7 -->
<g id="edge6" class="edge"><title>Node1&#45;&gt;Node7</title>
<path fill="none" stroke="midnightblue" d="M440.548,-145.46C471.569,-136.473 521.751,-121.871 565,-109 568.314,-108.014 571.719,-106.996 575.154,-105.965"/>
<polygon fill="midnightblue" stroke="midnightblue" points="576.292,-109.278 584.86,-103.046 574.275,-102.575 576.292,-109.278"/>
</g>
<!-- Node8 -->
<g id="node8" class="node"><title>Node8</title>
<g id="a_node8"><a xlink:href="a00005.html" target="_top" xlink:title="roboptim/core/plugin\l/eigen/eigen&#45;levenberg\l&#45;marquardt.hh">
<polygon fill="white" stroke="black" points="705.5,-67.5 705.5,-108.5 830.5,-108.5 830.5,-67.5 705.5,-67.5"/>
<text text-anchor="start" x="713.5" y="-96.5" font-family="Helvetica,sans-Serif" font-size="10.00">roboptim/core/plugin</text>
<text text-anchor="start" x="713.5" y="-85.5" font-family="Helvetica,sans-Serif" font-size="10.00">/eigen/eigen&#45;levenberg</text>
<text text-anchor="middle" x="768" y="-74.5" font-family="Helvetica,sans-Serif" font-size="10.00">&#45;marquardt.hh</text>
</a>
</g>
</g>
<!-- Node1&#45;&gt;Node8 -->
<g id="edge7" class="edge"><title>Node1&#45;&gt;Node8</title>
<path fill="none" stroke="midnightblue" d="M479.903,-145.49C535.713,-138.065 616.511,-126.113 695.287,-109.262"/>
<polygon fill="midnightblue" stroke="midnightblue" points="696.351,-112.613 705.382,-107.073 694.867,-105.772 696.351,-112.613"/>
</g>
<!-- Node13 -->
<g id="node13" class="node"><title>Node13</title>
<polygon fill="white" stroke="#bfbfbf" points="909,-0.5 909,-30.5 1067,-30.5 1067,-0.5 909,-0.5"/>
<text text-anchor="start" x="917" y="-18.5" font-family="Helvetica,sans-Serif" font-size="10.00">unsupported/Eigen/NonLinear</text>
<text text-anchor="middle" x="988" y="-7.5" font-family="Helvetica,sans-Serif" font-size="10.00">Optimization</text>
</g>
<!-- Node1&#45;&gt;Node13 -->
<g id="edge13" class="edge"><title>Node1&#45;&gt;Node13</title>
<path fill="none" stroke="midnightblue" d="M489.103,-150.03C594.706,-143.939 777.068,-130.665 840,-109 887.254,-92.732 935.054,-59.0292 963.08,-37.1106"/>
<polygon fill="midnightblue" stroke="midnightblue" points="965.471,-39.6815 971.121,-30.719 961.115,-34.2019 965.471,-39.6815"/>
</g>
<!-- Node9 -->
<g id="node9" class="node"><title>Node9</title>
<polygon fill="white" stroke="#bfbfbf" points="368,-6 368,-25 482,-25 482,-6 368,-6"/>
<text text-anchor="middle" x="425" y="-13" font-family="Helvetica,sans-Serif" font-size="10.00">boost/mpl/vector.hpp</text>
</g>
<!-- Node8&#45;&gt;Node9 -->
<g id="edge8" class="edge"><title>Node8&#45;&gt;Node9</title>
<path fill="none" stroke="midnightblue" d="M705.368,-68.9878C702.546,-68.2928 699.747,-67.6264 697,-67 606.81,-46.4331 582.779,-48.7868 492,-31 485.868,-29.7986 479.434,-28.4802 473.079,-27.1432"/>
<polygon fill="midnightblue" stroke="midnightblue" points="473.722,-23.7017 463.212,-25.0411 472.263,-30.548 473.722,-23.7017"/>
</g>
<!-- Node10 -->
<g id="node10" class="node"><title>Node10</title>
<polygon fill="white" stroke="#bfbfbf" points="500.5,-6 500.5,-25 627.5,-25 627.5,-6 500.5,-6"/>
<text text-anchor="middle" x="564" y="-13" font-family="Helvetica,sans-Serif" font-size="10.00">roboptim/core/solver.hh</text>
</g>
<!-- Node8&#45;&gt;Node10 -->
<g id="edge9" class="edge"><title>Node8&#45;&gt;Node10</title>
<path fill="none" stroke="midnightblue" d="M711.446,-67.4554C675.057,-54.8799 628.968,-38.9521 598.092,-28.2817"/>
<polygon fill="midnightblue" stroke="midnightblue" points="599.228,-24.9714 588.633,-25.013 596.942,-31.5874 599.228,-24.9714"/>
</g>
<!-- Node11 -->
<g id="node11" class="node"><title>Node11</title>
<polygon fill="white" stroke="#bfbfbf" points="645.5,-0.5 645.5,-30.5 758.5,-30.5 758.5,-0.5 645.5,-0.5"/>
<text text-anchor="start" x="653.5" y="-18.5" font-family="Helvetica,sans-Serif" font-size="10.00">roboptim/core/solver</text>
<text text-anchor="middle" x="702" y="-7.5" font-family="Helvetica,sans-Serif" font-size="10.00">&#45;state.hh</text>
</g>
<!-- Node8&#45;&gt;Node11 -->
<g id="edge10" class="edge"><title>Node8&#45;&gt;Node11</title>
<path fill="none" stroke="midnightblue" d="M749.615,-67.3618C741.152,-58.322 731.083,-47.5655 722.388,-38.2779"/>
<polygon fill="midnightblue" stroke="midnightblue" points="724.862,-35.7998 715.473,-30.8916 719.752,-40.5838 724.862,-35.7998"/>
</g>
<!-- Node12 -->
<g id="node12" class="node"><title>Node12</title>
<polygon fill="white" stroke="#bfbfbf" points="776.5,-0.5 776.5,-30.5 891.5,-30.5 891.5,-0.5 776.5,-0.5"/>
<text text-anchor="start" x="784.5" y="-18.5" font-family="Helvetica,sans-Serif" font-size="10.00">roboptim/core/sum&#45;of</text>
<text text-anchor="middle" x="834" y="-7.5" font-family="Helvetica,sans-Serif" font-size="10.00">&#45;c1&#45;squares.hh</text>
</g>
<!-- Node8&#45;&gt;Node12 -->
<g id="edge11" class="edge"><title>Node8&#45;&gt;Node12</title>
<path fill="none" stroke="midnightblue" d="M786.385,-67.3618C794.848,-58.322 804.917,-47.5655 813.612,-38.2779"/>
<polygon fill="midnightblue" stroke="midnightblue" points="816.248,-40.5838 820.527,-30.8916 811.138,-35.7998 816.248,-40.5838"/>
</g>
<!-- Node8&#45;&gt;Node13 -->
<g id="edge12" class="edge"><title>Node8&#45;&gt;Node13</title>
<path fill="none" stroke="midnightblue" d="M828.99,-67.4554C862.065,-56.8566 902.57,-43.8765 934.421,-33.6697"/>
<polygon fill="midnightblue" stroke="midnightblue" points="935.555,-36.9816 944.01,-30.5968 933.419,-30.3155 935.555,-36.9816"/>
</g>
</g>
</svg>
