<?xml version="1.0" encoding="UTF-8" standalone="no"?>
<!DOCTYPE svg PUBLIC "-//W3C//DTD SVG 1.1//EN"
 "http://www.w3.org/Graphics/SVG/1.1/DTD/svg11.dtd">
<!-- Generated by graphviz version 2.38.0 (20140413.2041)
 -->
<!-- Title: eigen&#45;levenberg&#45;marquardt.hh Pages: 1 -->
<svg width="692pt" height="95pt"
 viewBox="0.00 0.00 691.50 95.00" xmlns="http://www.w3.org/2000/svg" xmlns:xlink="http://www.w3.org/1999/xlink">
<g id="graph0" class="graph" transform="scale(1 1) rotate(0) translate(4 91)">
<title>eigen&#45;levenberg&#45;marquardt.hh</title>
<polygon fill="white" stroke="none" points="-4,4 -4,-91 687.5,-91 687.5,4 -4,4"/>
<!-- Node1 -->
<g id="node1" class="node"><title>Node1</title>
<polygon fill="#bfbfbf" stroke="black" points="163.5,-67.5 163.5,-86.5 321.5,-86.5 321.5,-67.5 163.5,-67.5"/>
<text text-anchor="middle" x="242.5" y="-74.5" font-family="Helvetica,sans-Serif" font-size="10.00">eigen&#45;levenberg&#45;marquardt.hh</text>
</g>
<!-- Node2 -->
<g id="node2" class="node"><title>Node2</title>
<polygon fill="white" stroke="#bfbfbf" points="0,-6 0,-25 37,-25 37,-6 0,-6"/>
<text text-anchor="middle" x="18.5" y="-13" font-family="Helvetica,sans-Serif" font-size="10.00">map</text>
</g>
<!-- Node1&#45;&gt;Node2 -->
<g id="edge1" class="edge"><title>Node1&#45;&gt;Node2</title>
<path fill="none" stroke="midnightblue" d="M186.995,-67.429C146.875,-60.2532 91.8177,-48.3657 45.5,-31 44.295,-30.5482 43.0766,-30.0523 41.8582,-29.5248"/>
<polygon fill="midnightblue" stroke="midnightblue" points="43.2589,-26.3137 32.7379,-25.0651 40.1839,-32.6022 43.2589,-26.3137"/>
</g>
<!-- Node3 -->
<g id="node3" class="node"><title>Node3</title>
<polygon fill="white" stroke="#bfbfbf" points="55,-6 55,-25 98,-25 98,-6 55,-6"/>
<text text-anchor="middle" x="76.5" y="-13" font-family="Helvetica,sans-Serif" font-size="10.00">string</text>
</g>
<!-- Node1&#45;&gt;Node3 -->
<g id="edge2" class="edge"><title>Node1&#45;&gt;Node3</title>
<path fill="none" stroke="midnightblue" d="M213.71,-67.4645C186.139,-59.0423 143.526,-45.3737 107.5,-31 106.12,-30.4495 104.715,-29.8683 103.301,-29.2676"/>
<polygon fill="midnightblue" stroke="midnightblue" points="104.608,-26.0184 94.0499,-25.1393 101.756,-32.4108 104.608,-26.0184"/>
</g>
<!-- Node4 -->
<g id="node4" class="node"><title>Node4</title>
<polygon fill="white" stroke="#bfbfbf" points="116.5,-6 116.5,-25 230.5,-25 230.5,-6 116.5,-6"/>
<text text-anchor="middle" x="173.5" y="-13" font-family="Helvetica,sans-Serif" font-size="10.00">boost/mpl/vector.hpp</text>
</g>
<!-- Node1&#45;&gt;Node4 -->
<g id="edge3" class="edge"><title>Node1&#45;&gt;Node4</title>
<path fill="none" stroke="midnightblue" d="M232.614,-67.4751C221.854,-58.1966 204.429,-43.1706 191.279,-31.831"/>
<polygon fill="midnightblue" stroke="midnightblue" points="193.227,-28.889 183.368,-25.0091 188.655,-34.1902 193.227,-28.889"/>
</g>
<!-- Node5 -->
<g id="node5" class="node"><title>Node5</title>
<polygon fill="white" stroke="#bfbfbf" points="249,-6 249,-25 376,-25 376,-6 249,-6"/>
<text text-anchor="middle" x="312.5" y="-13" font-family="Helvetica,sans-Serif" font-size="10.00">roboptim/core/solver.hh</text>
</g>
<!-- Node1&#45;&gt;Node5 -->
<g id="edge4" class="edge"><title>Node1&#45;&gt;Node5</title>
<path fill="none" stroke="midnightblue" d="M252.529,-67.4751C263.549,-58.1082 281.46,-42.8839 294.843,-31.5081"/>
<polygon fill="midnightblue" stroke="midnightblue" points="297.137,-34.1524 302.489,-25.0091 292.603,-28.8188 297.137,-34.1524"/>
</g>
<!-- Node6 -->
<g id="node6" class="node"><title>Node6</title>
<polygon fill="white" stroke="#bfbfbf" points="394,-0.5 394,-30.5 507,-30.5 507,-0.5 394,-0.5"/>
<text text-anchor="start" x="402" y="-18.5" font-family="Helvetica,sans-Serif" font-size="10.00">roboptim/core/solver</text>
<text text-anchor="middle" x="450.5" y="-7.5" font-family="Helvetica,sans-Serif" font-size="10.00">&#45;state.hh</text>
</g>
<!-- Node1&#45;&gt;Node6 -->
<g id="edge5" class="edge"><title>Node1&#45;&gt;Node6</title>
<path fill="none" stroke="midnightblue" d="M272.301,-67.4751C303.368,-58.5882 352.866,-44.4288 391.82,-33.2859"/>
<polygon fill="midnightblue" stroke="midnightblue" points="392.827,-36.6383 401.479,-30.523 390.902,-29.9083 392.827,-36.6383"/>
</g>
<!-- Node7 -->
<g id="node7" class="node"><title>Node7</title>
<polygon fill="white" stroke="#bfbfbf" points="525.5,-0.5 525.5,-30.5 683.5,-30.5 683.5,-0.5 525.5,-0.5"/>
<text text-anchor="start" x="533.5" y="-18.5" font-family="Helvetica,sans-Serif" font-size="10.00">unsupported/Eigen/NonLinear</text>
<text text-anchor="middle" x="604.5" y="-7.5" font-family="Helvetica,sans-Serif" font-size="10.00">Optimization</text>
</g>
<!-- Node1&#45;&gt;Node7 -->
<g id="edge6" class="edge"><title>Node1&#45;&gt;Node7</title>
<path fill="none" stroke="midnightblue" d="M294.519,-67.465C347.482,-58.7734 432.258,-44.8558 515.238,-31.2072"/>
<polygon fill="midnightblue" stroke="midnightblue" points="516.047,-34.6212 525.346,-29.5444 514.911,-27.714 516.047,-34.6212"/>
</g>
</g>
</svg>
