<?xml version="1.0" encoding="UTF-8" standalone="no"?>
<!DOCTYPE svg PUBLIC "-//W3C//DTD SVG 1.1//EN"
 "http://www.w3.org/Graphics/SVG/1.1/DTD/svg11.dtd">
<!-- Generated by graphviz version 2.38.0 (20140413.2041)
 -->
<!-- Title: eigen&#45;levenberg&#45;marquardt.cc Pages: 1 -->
<svg width="1194pt" height="173pt"
 viewBox="0.00 0.00 1194.00 173.00" xmlns="http://www.w3.org/2000/svg" xmlns:xlink="http://www.w3.org/1999/xlink">
<g id="graph0" class="graph" transform="scale(1 1) rotate(0) translate(4 169)">
<title>eigen&#45;levenberg&#45;marquardt.cc</title>
<polygon fill="white" stroke="none" points="-4,4 -4,-169 1190,-169 1190,4 -4,4"/>
<!-- Node1 -->
<g id="node1" class="node"><title>Node1</title>
<polygon fill="#bfbfbf" stroke="black" points="393,-145.5 393,-164.5 549,-164.5 549,-145.5 393,-145.5"/>
<text text-anchor="middle" x="471" y="-152.5" font-family="Helvetica,sans-Serif" font-size="10.00">eigen&#45;levenberg&#45;marquardt.cc</text>
</g>
<!-- Node2 -->
<g id="node2" class="node"><title>Node2</title>
<polygon fill="white" stroke="#bfbfbf" points="0,-78.5 0,-97.5 48,-97.5 48,-78.5 0,-78.5"/>
<text text-anchor="middle" x="24" y="-85.5" font-family="Helvetica,sans-Serif" font-size="10.00">cstring</text>
</g>
<!-- Node1&#45;&gt;Node2 -->
<g id="edge1" class="edge"><title>Node1&#45;&gt;Node2</title>
<path fill="none" stroke="midnightblue" d="M392.753,-154.001C309.124,-152.032 173.512,-143.132 62,-109 56.7002,-107.378 51.2739,-105.011 46.2415,-102.469"/>
<polygon fill="midnightblue" stroke="midnightblue" points="47.639,-99.2442 37.1863,-97.5145 44.279,-105.385 47.639,-99.2442"/>
</g>
<!-- Node3 -->
<g id="node3" class="node"><title>Node3</title>
<polygon fill="white" stroke="#bfbfbf" points="245.5,-6 245.5,-25 282.5,-25 282.5,-6 245.5,-6"/>
<text text-anchor="middle" x="264" y="-13" font-family="Helvetica,sans-Serif" font-size="10.00">map</text>
</g>
<!-- Node1&#45;&gt;Node3 -->
<g id="edge2" class="edge"><title>Node1&#45;&gt;Node3</title>
<path fill="none" stroke="midnightblue" d="M392.962,-150.107C288.614,-144.09 114.419,-130.882 95,-109 82.6097,-95.0384 83.8492,-81.9701 95,-67 127.438,-23.4517 196.026,-16.0034 235.119,-15.5383"/>
<polygon fill="midnightblue" stroke="midnightblue" points="235.298,-19.0387 245.308,-15.5681 235.318,-12.0387 235.298,-19.0387"/>
</g>
<!-- Node4 -->
<g id="node4" class="node"><title>Node4</title>
<polygon fill="white" stroke="#bfbfbf" points="104.5,-78.5 104.5,-97.5 231.5,-97.5 231.5,-78.5 104.5,-78.5"/>
<text text-anchor="middle" x="168" y="-85.5" font-family="Helvetica,sans-Serif" font-size="10.00">boost/assign/list_of.hpp</text>
</g>
<!-- Node1&#45;&gt;Node4 -->
<g id="edge3" class="edge"><title>Node1&#45;&gt;Node4</title>
<path fill="none" stroke="midnightblue" d="M421.192,-145.464C374.244,-137.144 302.036,-123.635 240,-109 229.187,-106.449 217.552,-103.367 206.855,-100.394"/>
<polygon fill="midnightblue" stroke="midnightblue" points="207.518,-96.945 196.943,-97.599 205.617,-103.682 207.518,-96.945"/>
</g>
<!-- Node5 -->
<g id="node5" class="node"><title>Node5</title>
<polygon fill="white" stroke="#bfbfbf" points="249.5,-78.5 249.5,-97.5 384.5,-97.5 384.5,-78.5 249.5,-78.5"/>
<text text-anchor="middle" x="317" y="-85.5" font-family="Helvetica,sans-Serif" font-size="10.00">roboptim/core/function.hh</text>
</g>
<!-- Node1&#45;&gt;Node5 -->
<g id="edge4" class="edge"><title>Node1&#45;&gt;Node5</title>
<path fill="none" stroke="midnightblue" d="M450.55,-145.369C423.972,-134.15 377.36,-114.477 346.834,-101.592"/>
<polygon fill="midnightblue" stroke="midnightblue" points="348.109,-98.3313 337.535,-97.6672 345.387,-104.78 348.109,-98.3313"/>
</g>
<!-- Node6 -->
<g id="node6" class="node"><title>Node6</title>
<polygon fill="white" stroke="#bfbfbf" points="403,-78.5 403,-97.5 539,-97.5 539,-78.5 403,-78.5"/>
<text text-anchor="middle" x="471" y="-85.5" font-family="Helvetica,sans-Serif" font-size="10.00">roboptim/core/problem.hh</text>
</g>
<!-- Node1&#45;&gt;Node6 -->
<g id="edge5" class="edge"><title>Node1&#45;&gt;Node6</title>
<path fill="none" stroke="midnightblue" d="M471,-145.234C471,-135.683 471,-120.118 471,-107.783"/>
<polygon fill="midnightblue" stroke="midnightblue" points="474.5,-107.627 471,-97.6273 467.5,-107.627 474.5,-107.627"/>
</g>
<!-- Node7 -->
<g id="node7" class="node"><title>Node7</title>
<polygon fill="white" stroke="#bfbfbf" points="557.5,-73 557.5,-103 670.5,-103 670.5,-73 557.5,-73"/>
<text text-anchor="start" x="565.5" y="-91" font-family="Helvetica,sans-Serif" font-size="10.00">roboptim/core/solver</text>
<text text-anchor="middle" x="614" y="-80" font-family="Helvetica,sans-Serif" font-size="10.00">&#45;error.hh</text>
</g>
<!-- Node1&#45;&gt;Node7 -->
<g id="edge6" class="edge"><title>Node1&#45;&gt;Node7</title>
<path fill="none" stroke="midnightblue" d="M489.989,-145.369C511.261,-135.699 546.353,-119.749 573.788,-107.278"/>
<polygon fill="midnightblue" stroke="midnightblue" points="575.483,-110.352 583.138,-103.028 572.586,-103.98 575.483,-110.352"/>
</g>
<!-- Node8 -->
<g id="node8" class="node"><title>Node8</title>
<polygon fill="white" stroke="#bfbfbf" points="688.5,-73 688.5,-103 803.5,-103 803.5,-73 688.5,-73"/>
<text text-anchor="start" x="696.5" y="-91" font-family="Helvetica,sans-Serif" font-size="10.00">roboptim/core/sum&#45;of</text>
<text text-anchor="middle" x="746" y="-80" font-family="Helvetica,sans-Serif" font-size="10.00">&#45;c1&#45;squares.hh</text>
</g>
<!-- Node1&#45;&gt;Node8 -->
<g id="edge7" class="edge"><title>Node1&#45;&gt;Node8</title>
<path fill="none" stroke="midnightblue" d="M515.056,-145.494C557.316,-137.093 622.82,-123.439 679,-109 682.858,-108.008 686.827,-106.943 690.817,-105.838"/>
<polygon fill="midnightblue" stroke="midnightblue" points="692.054,-109.125 700.721,-103.031 690.146,-102.39 692.054,-109.125"/>
</g>
<!-- Node9 -->
<g id="node9" class="node"><title>Node9</title>
<g id="a_node9"><a xlink:href="a00005.html" target="_top" xlink:title="roboptim/core/plugin\l/eigen/eigen&#45;levenberg\l&#45;marquardt.hh">
<polygon fill="white" stroke="black" points="821.5,-67.5 821.5,-108.5 946.5,-108.5 946.5,-67.5 821.5,-67.5"/>
<text text-anchor="start" x="829.5" y="-96.5" font-family="Helvetica,sans-Serif" font-size="10.00">roboptim/core/plugin</text>
<text text-anchor="start" x="829.5" y="-85.5" font-family="Helvetica,sans-Serif" font-size="10.00">/eigen/eigen&#45;levenberg</text>
<text text-anchor="middle" x="884" y="-74.5" font-family="Helvetica,sans-Serif" font-size="10.00">&#45;marquardt.hh</text>
</a>
</g>
</g>
<!-- Node1&#45;&gt;Node9 -->
<g id="edge8" class="edge"><title>Node1&#45;&gt;Node9</title>
<path fill="none" stroke="midnightblue" d="M549.049,-146.835C616.194,-139.953 715.747,-128.042 811.451,-108.964"/>
<polygon fill="midnightblue" stroke="midnightblue" points="812.189,-112.386 821.297,-106.973 810.801,-105.525 812.189,-112.386"/>
</g>
<!-- Node14 -->
<g id="node14" class="node"><title>Node14</title>
<polygon fill="white" stroke="#bfbfbf" points="1028,-0.5 1028,-30.5 1186,-30.5 1186,-0.5 1028,-0.5"/>
<text text-anchor="start" x="1036" y="-18.5" font-family="Helvetica,sans-Serif" font-size="10.00">unsupported/Eigen/NonLinear</text>
<text text-anchor="middle" x="1107" y="-7.5" font-family="Helvetica,sans-Serif" font-size="10.00">Optimization</text>
</g>
<!-- Node1&#45;&gt;Node14 -->
<g id="edge15" class="edge"><title>Node1&#45;&gt;Node14</title>
<path fill="none" stroke="midnightblue" d="M549.221,-151.008C666.458,-145.801 881.796,-133.234 955,-109 1003.58,-92.9181 1052.93,-58.9192 1081.72,-36.9236"/>
<polygon fill="midnightblue" stroke="midnightblue" points="1083.87,-39.686 1089.62,-30.7896 1079.57,-34.1563 1083.87,-39.686"/>
</g>
<!-- Node9&#45;&gt;Node3 -->
<g id="edge9" class="edge"><title>Node9&#45;&gt;Node3</title>
<path fill="none" stroke="midnightblue" d="M821.325,-68.8785C818.184,-68.194 815.062,-67.5618 812,-67 615.49,-30.9527 374.373,-20.1001 292.64,-17.334"/>
<polygon fill="midnightblue" stroke="midnightblue" points="292.722,-13.8349 282.614,-17.0087 292.495,-20.8312 292.722,-13.8349"/>
</g>
<!-- Node10 -->
<g id="node10" class="node"><title>Node10</title>
<polygon fill="white" stroke="#bfbfbf" points="557.5,-6 557.5,-25 600.5,-25 600.5,-6 557.5,-6"/>
<text text-anchor="middle" x="579" y="-13" font-family="Helvetica,sans-Serif" font-size="10.00">string</text>
</g>
<!-- Node9&#45;&gt;Node10 -->
<g id="edge10" class="edge"><title>Node9&#45;&gt;Node10</title>
<path fill="none" stroke="midnightblue" d="M821.26,-69.1959C818.136,-68.4275 815.036,-67.6906 812,-67 723.079,-46.7738 696.93,-58.553 610,-31 608.326,-30.4693 606.625,-29.8678 604.925,-29.2189"/>
<polygon fill="midnightblue" stroke="midnightblue" points="605.982,-25.8641 595.411,-25.1479 603.228,-32.2997 605.982,-25.8641"/>
</g>
<!-- Node11 -->
<g id="node11" class="node"><title>Node11</title>
<polygon fill="white" stroke="#bfbfbf" points="619,-6 619,-25 733,-25 733,-6 619,-6"/>
<text text-anchor="middle" x="676" y="-13" font-family="Helvetica,sans-Serif" font-size="10.00">boost/mpl/vector.hpp</text>
</g>
<!-- Node9&#45;&gt;Node11 -->
<g id="edge11" class="edge"><title>Node9&#45;&gt;Node11</title>
<path fill="none" stroke="midnightblue" d="M826.337,-67.4554C789.234,-54.8799 742.242,-38.9521 710.76,-28.2817"/>
<polygon fill="midnightblue" stroke="midnightblue" points="711.711,-24.9083 701.116,-25.013 709.464,-31.5379 711.711,-24.9083"/>
</g>
<!-- Node12 -->
<g id="node12" class="node"><title>Node12</title>
<polygon fill="white" stroke="#bfbfbf" points="751.5,-6 751.5,-25 878.5,-25 878.5,-6 751.5,-6"/>
<text text-anchor="middle" x="815" y="-13" font-family="Helvetica,sans-Serif" font-size="10.00">roboptim/core/solver.hh</text>
</g>
<!-- Node9&#45;&gt;Node12 -->
<g id="edge12" class="edge"><title>Node9&#45;&gt;Node12</title>
<path fill="none" stroke="midnightblue" d="M864.78,-67.3618C853.976,-56.323 840.667,-42.7245 830.529,-32.3665"/>
<polygon fill="midnightblue" stroke="midnightblue" points="832.985,-29.872 823.489,-25.1734 827.982,-34.7682 832.985,-29.872"/>
</g>
<!-- Node13 -->
<g id="node13" class="node"><title>Node13</title>
<polygon fill="white" stroke="#bfbfbf" points="896.5,-0.5 896.5,-30.5 1009.5,-30.5 1009.5,-0.5 896.5,-0.5"/>
<text text-anchor="start" x="904.5" y="-18.5" font-family="Helvetica,sans-Serif" font-size="10.00">roboptim/core/solver</text>
<text text-anchor="middle" x="953" y="-7.5" font-family="Helvetica,sans-Serif" font-size="10.00">&#45;state.hh</text>
</g>
<!-- Node9&#45;&gt;Node13 -->
<g id="edge13" class="edge"><title>Node9&#45;&gt;Node13</title>
<path fill="none" stroke="midnightblue" d="M903.22,-67.3618C912.068,-58.322 922.595,-47.5655 931.686,-38.2779"/>
<polygon fill="midnightblue" stroke="midnightblue" points="934.421,-40.4864 938.915,-30.8916 929.419,-35.5902 934.421,-40.4864"/>
</g>
<!-- Node9&#45;&gt;Node14 -->
<g id="edge14" class="edge"><title>Node9&#45;&gt;Node14</title>
<path fill="none" stroke="midnightblue" d="M945.822,-67.4554C979.347,-56.8566 1020.4,-43.8765 1052.69,-33.6697"/>
<polygon fill="midnightblue" stroke="midnightblue" points="1053.93,-36.9484 1062.41,-30.5968 1051.82,-30.274 1053.93,-36.9484"/>
</g>
</g>
</svg>
