<?xml version="1.0" encoding="UTF-8" standalone="no"?>
<!DOCTYPE svg PUBLIC "-//W3C//DTD SVG 1.1//EN"
 "http://www.w3.org/Graphics/SVG/1.1/DTD/svg11.dtd">
<!-- Generated by graphviz version 2.38.0 (20140413.2041)
 -->
<!-- Title: eigen&#45;levenberg&#45;marquardt.hh Pages: 1 -->
<svg width="707pt" height="95pt"
 viewBox="0.00 0.00 707.00 95.00" xmlns="http://www.w3.org/2000/svg" xmlns:xlink="http://www.w3.org/1999/xlink">
<g id="graph0" class="graph" transform="scale(1 1) rotate(0) translate(4 91)">
<title>eigen&#45;levenberg&#45;marquardt.hh</title>
<polygon fill="white" stroke="none" points="-4,4 -4,-91 703,-91 703,4 -4,4"/>
<!-- Node1 -->
<g id="node1" class="node"><title>Node1</title>
<polygon fill="#bfbfbf" stroke="black" points="255,-67.5 255,-86.5 413,-86.5 413,-67.5 255,-67.5"/>
<text text-anchor="middle" x="334" y="-74.5" font-family="Helvetica,sans-Serif" font-size="10.00">eigen&#45;levenberg&#45;marquardt.hh</text>
</g>
<!-- Node2 -->
<g id="node2" class="node"><title>Node2</title>
<polygon fill="white" stroke="#bfbfbf" points="0,-6 0,-25 114,-25 114,-6 0,-6"/>
<text text-anchor="middle" x="57" y="-13" font-family="Helvetica,sans-Serif" font-size="10.00">boost/mpl/vector.hpp</text>
</g>
<!-- Node1&#45;&gt;Node2 -->
<g id="edge1" class="edge"><title>Node1&#45;&gt;Node2</title>
<path fill="none" stroke="midnightblue" d="M293.534,-67.4469C251.047,-58.4485 182.305,-43.8383 123,-31 117.344,-29.7756 111.417,-28.4847 105.534,-27.1983"/>
<polygon fill="midnightblue" stroke="midnightblue" points="106.247,-23.7716 95.7296,-25.0504 104.749,-30.6094 106.247,-23.7716"/>
</g>
<!-- Node3 -->
<g id="node3" class="node"><title>Node3</title>
<polygon fill="white" stroke="#bfbfbf" points="132.5,-6 132.5,-25 259.5,-25 259.5,-6 132.5,-6"/>
<text text-anchor="middle" x="196" y="-13" font-family="Helvetica,sans-Serif" font-size="10.00">roboptim/core/solver.hh</text>
</g>
<!-- Node1&#45;&gt;Node3 -->
<g id="edge2" class="edge"><title>Node1&#45;&gt;Node3</title>
<path fill="none" stroke="midnightblue" d="M314.228,-67.4751C290.864,-57.4013 251.786,-40.5525 224.997,-29.0023"/>
<polygon fill="midnightblue" stroke="midnightblue" points="226.304,-25.7544 215.735,-25.0091 223.532,-32.1824 226.304,-25.7544"/>
</g>
<!-- Node4 -->
<g id="node4" class="node"><title>Node4</title>
<polygon fill="white" stroke="#bfbfbf" points="277.5,-0.5 277.5,-30.5 390.5,-30.5 390.5,-0.5 277.5,-0.5"/>
<text text-anchor="start" x="285.5" y="-18.5" font-family="Helvetica,sans-Serif" font-size="10.00">roboptim/core/solver</text>
<text text-anchor="middle" x="334" y="-7.5" font-family="Helvetica,sans-Serif" font-size="10.00">&#45;state.hh</text>
</g>
<!-- Node1&#45;&gt;Node4 -->
<g id="edge3" class="edge"><title>Node1&#45;&gt;Node4</title>
<path fill="none" stroke="midnightblue" d="M334,-67.4751C334,-60.471 334,-50.1919 334,-40.6956"/>
<polygon fill="midnightblue" stroke="midnightblue" points="337.5,-40.5229 334,-30.523 330.5,-40.523 337.5,-40.5229"/>
</g>
<!-- Node5 -->
<g id="node5" class="node"><title>Node5</title>
<polygon fill="white" stroke="#bfbfbf" points="408.5,-0.5 408.5,-30.5 523.5,-30.5 523.5,-0.5 408.5,-0.5"/>
<text text-anchor="start" x="416.5" y="-18.5" font-family="Helvetica,sans-Serif" font-size="10.00">roboptim/core/sum&#45;of</text>
<text text-anchor="middle" x="466" y="-7.5" font-family="Helvetica,sans-Serif" font-size="10.00">&#45;c1&#45;squares.hh</text>
</g>
<!-- Node1&#45;&gt;Node5 -->
<g id="edge4" class="edge"><title>Node1&#45;&gt;Node5</title>
<path fill="none" stroke="midnightblue" d="M352.912,-67.4751C371.792,-58.9648 401.399,-45.6193 425.584,-34.718"/>
<polygon fill="midnightblue" stroke="midnightblue" points="427.212,-37.8232 434.89,-30.523 424.335,-31.4416 427.212,-37.8232"/>
</g>
<!-- Node6 -->
<g id="node6" class="node"><title>Node6</title>
<polygon fill="white" stroke="#bfbfbf" points="541,-0.5 541,-30.5 699,-30.5 699,-0.5 541,-0.5"/>
<text text-anchor="start" x="549" y="-18.5" font-family="Helvetica,sans-Serif" font-size="10.00">unsupported/Eigen/NonLinear</text>
<text text-anchor="middle" x="620" y="-7.5" font-family="Helvetica,sans-Serif" font-size="10.00">Optimization</text>
</g>
<!-- Node1&#45;&gt;Node6 -->
<g id="edge5" class="edge"><title>Node1&#45;&gt;Node6</title>
<path fill="none" stroke="midnightblue" d="M374.977,-67.4751C418.599,-58.3999 488.649,-43.8265 542.699,-32.5818"/>
<polygon fill="midnightblue" stroke="midnightblue" points="543.518,-35.9865 552.595,-30.523 542.092,-29.1332 543.518,-35.9865"/>
</g>
</g>
</svg>
